<svg width="22" height="28" viewBox="0 0 22 28" fill="none" xmlns="http://www.w3.org/2000/svg">
<path d="M11 0.5C4.31689 0.5 0 4.94897 0 11.8341C0 19.128 9.82911 26.9128 10.2483 27.2405C10.4631 27.4087 10.7276 27.5 11 27.5C11.2724 27.5 11.5369 27.4087 11.7517 27.2405C12.1709 26.9128 22 19.128 22 11.8341C22 4.94897 17.6831 0.5 11 0.5ZM11 17.6822C9.79134 17.6822 8.60982 17.3223 7.60485 16.648C6.59988 15.9738 5.81661 15.0154 5.35407 13.8941C4.89153 12.7728 4.77051 11.5389 5.00631 10.3485C5.24211 9.15818 5.82414 8.06476 6.67879 7.20655C7.53345 6.34834 8.62234 5.7639 9.80778 5.52712C10.9932 5.29034 12.222 5.41186 13.3386 5.87632C14.4553 6.34078 15.4097 7.12731 16.0812 8.13646C16.7527 9.1456 17.1111 10.332 17.1111 11.5457C17.1092 13.1726 16.4647 14.7323 15.3191 15.8827C14.1734 17.0331 12.6202 17.6803 11 17.6822Z" fill="#09334F"/>
</svg>
