<svg width="34" height="35" viewBox="0 0 34 35" fill="none" xmlns="http://www.w3.org/2000/svg">
<path d="M16.9999 0.725586C26.2049 0.725586 33.6666 8.18725 33.6666 17.3923C33.6666 26.5973 26.2049 34.0589 16.9999 34.0589C7.79492 34.0589 0.333252 26.5973 0.333252 17.3923C0.333252 8.18725 7.79492 0.725586 16.9999 0.725586ZM16.9999 7.39225C16.5579 7.39225 16.134 7.56785 15.8214 7.88041C15.5088 8.19297 15.3333 8.61689 15.3333 9.05892V17.3923C15.3333 17.8342 15.509 18.2581 15.8216 18.5706L20.8216 23.5706C21.1359 23.8742 21.5569 24.0422 21.9939 24.0384C22.4309 24.0346 22.8489 23.8593 23.1579 23.5503C23.467 23.2413 23.6422 22.8232 23.646 22.3863C23.6498 21.9493 23.4818 21.5283 23.1783 21.2139L18.6666 16.7023V9.05892C18.6666 8.61689 18.491 8.19297 18.1784 7.88041C17.8659 7.56785 17.4419 7.39225 16.9999 7.39225Z" fill="#F7F6F6"/>
</svg>
