<svg width="10" height="6" viewBox="0 0 10 6" fill="none" xmlns="http://www.w3.org/2000/svg">
<path d="M9.50215 0.405982L0.502153 0.405982C0.411032 0.406173 0.321715 0.422927 0.243815 0.454441C0.165915 0.485956 0.102382 0.531037 0.0600553 0.584833C0.0177284 0.638629 -0.00179046 0.699102 0.00360162 0.759743C0.00899275 0.820384 0.0390898 0.878897 0.090653 0.928982L4.59065 5.26231C4.77715 5.44198 5.22615 5.44198 5.41315 5.26231L9.91315 0.928981C9.96524 0.879 9.99579 0.820458 10.0015 0.759717C10.0072 0.698974 9.98776 0.638355 9.9454 0.584445C9.90303 0.530536 9.83932 0.485397 9.76117 0.453933C9.68303 0.42247 9.59344 0.405886 9.50215 0.405982Z" fill="#09334F"/>
</svg>
