<svg width="10" height="6" viewBox="0 0 10 6" fill="none" xmlns="http://www.w3.org/2000/svg">
<path d="M9.5002 0.312293L0.5002 0.312293C0.409079 0.312484 0.319762 0.329238 0.241862 0.360752C0.163962 0.392267 0.100429 0.437348 0.0581022 0.491144C0.0157753 0.54494 -0.00374358 0.605413 0.0016485 0.666054C0.00703962 0.726695 0.0371366 0.785208 0.0886999 0.835293L4.5887 5.16863C4.7752 5.34829 5.2242 5.34829 5.4112 5.16863L9.9112 0.835292C9.96329 0.785311 9.99383 0.726769 9.99952 0.666028C10.0052 0.605285 9.98581 0.544666 9.94344 0.490757C9.90108 0.436847 9.83736 0.391708 9.75922 0.360244C9.68107 0.328781 9.59149 0.312197 9.5002 0.312293Z" fill="#F7F6F6"/>
</svg>
