<svg width="34" height="28" viewBox="0 0 34 28" fill="none" xmlns="http://www.w3.org/2000/svg">
<path d="M30.3333 0.666664H3.66659C1.83325 0.666664 0.349919 2.16666 0.349919 4L0.333252 24C0.333252 25.8333 1.83325 27.3333 3.66659 27.3333H30.3333C32.1666 27.3333 33.6666 25.8333 33.6666 24V4C33.6666 2.16666 32.1666 0.666664 30.3333 0.666664ZM29.6666 7.75L17.8833 15.1167C17.3499 15.45 16.6499 15.45 16.1166 15.1167L4.33325 7.75C4.16613 7.65618 4.01978 7.52943 3.90307 7.37742C3.78635 7.22541 3.70169 7.05129 3.65421 6.86562C3.60673 6.67994 3.59742 6.48656 3.62685 6.29718C3.65627 6.10779 3.72381 5.92635 3.82539 5.76383C3.92696 5.60131 4.06046 5.46109 4.2178 5.35166C4.37513 5.24222 4.55304 5.16585 4.74074 5.12716C4.92845 5.08847 5.12206 5.08828 5.30984 5.12658C5.49763 5.16488 5.67569 5.24089 5.83325 5.35L16.9999 12.3333L28.1666 5.35C28.3241 5.24089 28.5022 5.16488 28.69 5.12658C28.8778 5.08828 29.0714 5.08847 29.2591 5.12716C29.4468 5.16585 29.6247 5.24222 29.782 5.35166C29.9394 5.46109 30.0729 5.60131 30.1744 5.76383C30.276 5.92635 30.3436 6.10779 30.373 6.29718C30.4024 6.48656 30.3931 6.67994 30.3456 6.86562C30.2981 7.05129 30.2135 7.22541 30.0968 7.37742C29.9801 7.52943 29.8337 7.65618 29.6666 7.75Z" fill="#09334F"/>
</svg>
