<svg width="35" height="36" viewBox="0 0 35 36" fill="none" xmlns="http://www.w3.org/2000/svg">
<path fill-rule="evenodd" clip-rule="evenodd" d="M15.7996 0.36925C10.1036 0.986526 5.20165 4.16042 2.26981 9.12966C1.36012 10.6713 0.615229 12.7255 0.202681 14.8302C-0.0675603 16.2087 -0.0675603 19.4831 0.202681 20.8615C0.940331 24.6242 2.52019 27.6394 5.1108 30.2286C7.68517 32.8015 10.774 34.419 14.483 35.1364C15.8583 35.4025 19.1423 35.4025 20.5176 35.1364C25.3779 34.1963 29.4339 31.5341 32.1278 27.5158C33.37 25.6629 34.3367 23.2561 34.8004 20.8615C35.0665 19.4869 35.0665 16.2048 34.8004 14.8302C34.0162 10.7804 32.0113 7.23923 29.0409 4.6574C26.5737 2.51299 23.8614 1.20519 20.5725 0.574533C19.6641 0.400284 16.6927 0.27253 15.7996 0.36925ZM22.1936 10.0326L22.1634 11.7597L20.7689 11.8146C18.9982 11.8842 19.0446 11.8363 19.0399 13.5966L19.0364 14.8851H20.6273C21.8281 14.8851 22.2177 14.9187 22.2161 15.0221C22.2149 15.0976 22.1418 15.8254 22.0537 16.6396C21.9656 17.4538 21.8925 18.2063 21.8913 18.3119C21.8893 18.4848 21.7473 18.5038 20.4628 18.5038H19.0364V23.5482V28.5926H16.8969H14.7573V23.5482V18.5038H13.7698H12.7823V16.6944V14.8851H13.7698H14.7573L14.758 13.5966C14.7583 12.8878 14.8057 12.0208 14.8632 11.6697C15.1381 9.99192 16.2133 8.78741 17.7746 8.40788C17.9557 8.3639 19.0308 8.32289 20.1638 8.31664L22.2239 8.30545L22.1936 10.0326Z" fill="#F7F6F6"/>
</svg>
