<svg width="35" height="35" viewBox="0 0 35 35" fill="none" xmlns="http://www.w3.org/2000/svg">
<path fill-rule="evenodd" clip-rule="evenodd" d="M15.7996 0.0333122C10.1036 0.650589 5.20165 3.82448 2.26981 8.79372C1.36012 10.3353 0.615229 12.3896 0.202681 14.4943C-0.0675603 15.8727 -0.0675603 19.1472 0.202681 20.5256C0.940331 24.2882 2.52019 27.3035 5.1108 29.8926C7.68517 32.4656 10.774 34.0831 14.483 34.8005C15.8583 35.0665 19.1423 35.0665 20.5176 34.8005C25.3779 33.8604 29.4339 31.1981 32.1278 27.1799C33.37 25.3269 34.3367 22.9201 34.8004 20.5256C35.0665 19.151 35.0665 15.8689 34.8004 14.4943C34.0162 10.4444 32.0113 6.90329 29.0409 4.32146C26.5737 2.17706 23.8614 0.869251 20.5725 0.238596C19.6641 0.064346 16.6927 -0.0634079 15.7996 0.0333122ZM22.1936 9.69666L22.1634 11.4238L20.7689 11.4786C18.9982 11.5483 19.0446 11.5004 19.0399 13.2606L19.0364 14.5491H20.6273C21.8281 14.5491 22.2177 14.5828 22.2161 14.6862C22.2149 14.7616 22.1418 15.4895 22.0537 16.3037C21.9656 17.1179 21.8925 17.8704 21.8913 17.976C21.8893 18.1488 21.7473 18.1679 20.4628 18.1679H19.0364V23.2123V28.2566H16.8969H14.7573V23.2123V18.1679H13.7698H12.7823V16.3585V14.5491H13.7698H14.7573L14.758 13.2606C14.7583 12.5519 14.8057 11.6849 14.8632 11.3338C15.1381 9.65598 16.2133 8.45147 17.7746 8.07194C17.9557 8.02797 19.0308 7.98695 20.1638 7.9807L22.2239 7.96952L22.1936 9.69666Z" fill="#09334F"/>
</svg>
