<svg width="82" height="82" viewBox="0 0 82 82" fill="none" xmlns="http://www.w3.org/2000/svg">
<rect width="82" height="82" rx="10" fill="#09334F"/>
<g clip-path="url(#clip0_419_218)">
<path d="M27.319 37.6458L28.6639 37.1077C29.244 38.5591 30.4332 39.6215 31.8715 40.056C31.1038 39.252 30.5433 38.2592 30.2673 37.1547L30.1854 36.8273L31.5911 36.4775L31.6722 36.8042C32.0285 38.2316 32.9889 39.4287 34.3062 40.0871L34.6807 40.2733H35.234C35.7425 40.2733 36.2131 40.4159 36.6289 40.647C36.6535 40.4638 36.6825 40.282 36.6825 40.0951C36.6825 37.7972 34.8133 35.928 32.5153 35.928H29.2621C26.9642 35.928 25.095 37.7972 25.095 40.0951C25.095 40.282 25.1239 40.4638 25.1486 40.647C25.5643 40.416 26.035 40.2733 26.5435 40.2733H27.1496L27.2677 40.2342C27.7254 40.0821 28.1671 39.888 28.588 39.657C28.057 39.0827 27.6232 38.4047 27.319 37.6458Z" fill="#F7F6F6"/>
<path d="M33.7857 45.3428V41.7217H33.3403C32.0294 41.7217 30.7925 41.3357 29.756 40.6492C29.1999 40.999 28.6096 41.2886 27.9918 41.5153V45.3428C27.9918 46.5407 28.9666 47.5155 30.1645 47.5155H30.2094H31.5673H31.6129C32.8109 47.5155 33.7857 46.5407 33.7857 45.3428Z" fill="#F7F6F6"/>
<path d="M41.0279 33.031H20.7496C20.3498 33.031 20.0254 33.3561 20.0254 33.7552V61.2759C20.0254 61.6757 20.3498 62.0001 20.7496 62.0001H41.028C41.4278 62.0001 41.7522 61.6757 41.7522 61.2759V33.7552C41.7521 33.3561 41.4277 33.031 41.0279 33.031ZM22.9281 53.9437C23.2765 51.1555 25.1732 48.8936 27.6863 47.9688C27.154 47.4662 26.7687 46.8108 26.6174 46.067H26.5434C24.9458 46.067 23.6465 44.7678 23.6465 43.1701C23.6465 42.7132 23.7624 42.2865 23.9514 41.9021C23.753 41.3197 23.6465 40.7151 23.6465 40.0951C23.6465 36.9991 26.1661 34.4795 29.2622 34.4795H32.5154C35.6114 34.4795 38.131 36.9991 38.131 40.0951C38.131 40.7151 38.0246 41.3198 37.8261 41.9021C38.0152 42.2866 38.131 42.7132 38.131 43.1701C38.131 44.7678 36.8318 46.067 35.2341 46.067H35.161C35.0096 46.8108 34.6236 47.4662 34.092 47.9688C36.6043 48.8936 38.5012 51.1562 38.8502 53.9437L38.9517 54.7578H22.826L22.9281 53.9437ZM31.613 56.2062V57.6547H24.3708V56.2062H31.613ZM21.4739 56.2062H22.9224V57.6547H21.4739V56.2062ZM40.3037 60.5516H21.4739V59.1031H40.3037V60.5516ZM40.3037 57.6546H33.0614V56.2062H40.3037V57.6546Z" fill="#F7F6F6"/>
<path d="M35.2341 41.7217V44.6186C36.0329 44.6186 36.6826 43.9689 36.6826 43.1701C36.6825 42.3713 36.0329 41.7217 35.2341 41.7217Z" fill="#F7F6F6"/>
<path d="M25.095 43.1701C25.095 43.9689 25.7446 44.6186 26.5435 44.6186V41.7217C25.7446 41.7217 25.095 42.3713 25.095 43.1701Z" fill="#F7F6F6"/>
<path d="M35.2341 29.8357V31.5826H41.0279C42.2257 31.5826 43.2005 32.5574 43.2005 33.7552V41.7217H48.2701V33.031H56.9609V41.7217H59.8578V29.8357L47.546 22.9961L35.2341 29.8357ZM43.2006 30.8583V26.513H46.8217V30.8583H43.2006ZM51.8913 26.513V30.8583H48.2701V26.513H51.8913Z" fill="#F7F6F6"/>
<path d="M49.7186 34.4795H55.5124V41.7217H49.7186V34.4795Z" fill="#F7F6F6"/>
<path d="M48.5556 20.2542C47.9393 19.916 47.1542 19.9145 46.5357 20.2542L33.1166 27.6348C33.2751 28.1881 33.7546 28.6067 34.3398 28.6754L47.5461 21.3391L60.7516 28.6755C61.3375 28.6068 61.8169 28.1881 61.9747 27.6348L48.5556 20.2542Z" fill="#F7F6F6"/>
<path d="M33.743 49.3862C33.5366 50.7825 32.3416 51.8609 30.8888 51.8609C29.436 51.8609 28.241 50.7826 28.0346 49.3862C26.3407 50.0634 25.0168 51.5031 24.5258 53.3093H37.2519C36.7608 51.5031 35.4369 50.0634 33.743 49.3862Z" fill="#F7F6F6"/>
<path d="M30.2095 48.9641C29.9502 48.9641 29.6967 48.9859 29.4454 49.0191C29.4751 49.7919 30.1088 50.4125 30.8888 50.4125C31.6688 50.4125 32.3025 49.7919 32.3315 49.0191C32.0809 48.9859 31.8267 48.9641 31.5674 48.9641H30.2095Z" fill="#F7F6F6"/>
<path d="M46.0975 62.0001H54.7883V53.3093H46.0975V62.0001ZM48.058 57.867L48.9944 58.8034L52.8277 54.9701L53.8518 55.9941L48.9943 60.8515L47.0339 58.891L48.058 57.867Z" fill="#F7F6F6"/>
</g>
<defs>
<clipPath id="clip0_419_218">
<rect width="42" height="42" fill="white" transform="translate(20 20)"/>
</clipPath>
</defs>
</svg>
