<svg width="82" height="82" viewBox="0 0 82 82" fill="none" xmlns="http://www.w3.org/2000/svg">
<rect width="82" height="82" rx="10" fill="#09334F"/>
<g clip-path="url(#clip0_386_7738)">
<path d="M32.068 37.3896H25.0099C25.2594 38.9142 25.9181 40.3424 26.9157 41.5219C28.3596 40.2333 30.1521 39.4002 32.068 39.1272L32.068 37.3896Z" fill="#F7F6F6"/>
<path d="M32.068 32.8677C30.1522 32.5933 28.36 31.7596 26.9159 30.4712C25.9182 31.6514 25.2594 33.0802 25.0099 34.6053H32.068V32.8677Z" fill="#F7F6F6"/>
<path d="M48.459 23.3104C48.459 22.5948 48.1747 21.9086 47.6687 21.4026C47.1627 20.8966 46.4765 20.6123 45.7609 20.6123H21.0499C20.6956 20.6123 20.3447 20.6821 20.0174 20.8177C19.69 20.9533 19.3926 21.152 19.142 21.4026C18.8915 21.6531 18.6928 21.9505 18.5572 22.2779C18.4216 22.6052 18.3518 22.9561 18.3518 23.3104V57.6905C18.3518 58.0448 18.4216 58.3956 18.5572 58.723C18.6928 59.0503 18.8915 59.3478 19.142 59.5983C19.3926 59.8489 19.69 60.0476 20.0174 60.1832C20.3447 60.3188 20.6956 60.3886 21.0499 60.3886H45.7609C46.4765 60.3886 47.1627 60.1043 47.6687 59.5983C48.1747 59.0923 48.459 58.406 48.459 57.6905V23.3104ZM22.1074 35.9965C22.1102 33.2267 23.1237 30.553 24.9578 28.4774C26.7919 26.4017 29.3204 25.0667 32.0688 24.7229V27.5388C31.0066 27.7146 29.9874 28.0902 29.0651 28.6455C30.3138 29.6411 31.864 30.1823 33.4611 30.1805C34.0671 30.1807 34.6706 30.1035 35.2571 29.9508C36.3749 30.2741 37.3795 30.9048 38.1564 31.7711C37.1298 32.3304 36.0109 32.7006 34.8533 32.864V34.6042H39.6148C39.819 35.5212 39.819 36.4718 39.6148 37.3888H34.8533V39.1291C36.0089 39.2945 37.126 39.6633 38.1529 40.2185C37.3751 41.0862 36.3694 41.7181 35.2501 42.0423C34.1892 41.7648 33.0782 41.7383 32.0052 41.9649C30.9322 42.1914 29.9268 42.6648 29.0686 43.3476C29.9899 43.9018 31.008 44.2762 32.0688 44.4509V47.2667C29.3207 46.9237 26.7922 45.5894 24.9581 43.5143C23.1239 41.4392 22.1103 38.766 22.1074 35.9965ZM39.4964 54.8196H27.3144C27.1201 54.8196 26.9277 54.7813 26.7483 54.707C26.5688 54.6327 26.4057 54.5237 26.2684 54.3863C26.131 54.249 26.022 54.0859 25.9477 53.9064C25.8734 53.727 25.8351 53.5346 25.8351 53.3404C25.8351 53.1461 25.8734 52.9538 25.9477 52.7743C26.022 52.5948 26.131 52.4317 26.2684 52.2944C26.4057 52.157 26.5688 52.0481 26.7483 51.9737C26.9277 51.8994 27.1201 51.8611 27.3144 51.8611H39.4964C39.8888 51.8611 40.265 52.017 40.5424 52.2944C40.8198 52.5718 40.9757 52.948 40.9757 53.3404C40.9757 53.7327 40.8198 54.1089 40.5424 54.3863C40.265 54.6638 39.8888 54.8196 39.4964 54.8196ZM34.8533 47.2667V44.4509C36.8577 44.1207 38.6796 43.0892 39.9942 41.5404C41.3087 39.9916 42.0303 38.0263 42.0303 35.9948C42.0303 33.9634 41.3087 31.998 39.9942 30.4492C38.6796 28.9004 36.8577 27.869 34.8533 27.5388V24.7229C37.6028 25.0636 40.1329 26.3974 41.9675 28.4734C43.8022 30.5494 44.8148 33.2243 44.8148 35.9948C44.8148 38.7653 43.8022 41.4403 41.9675 43.5162C40.1329 45.5922 37.6028 46.9261 34.8533 47.2667Z" fill="#F7F6F6"/>
<path d="M60.4683 18.3499H48.1566C49.0893 18.8008 49.8761 19.5052 50.4269 20.3825C50.9778 21.2598 51.2705 22.2745 51.2715 23.3104V47.9514H57.5679C57.8234 47.1173 58.2803 46.359 58.8984 45.7434C59.5165 45.1278 60.2766 44.6739 61.1117 44.4217C61.5575 44.2849 61.9475 44.0084 62.2241 43.6331C62.5008 43.2577 62.6494 42.8033 62.648 42.337V20.5331C62.6484 20.2465 62.5924 19.9627 62.483 19.6979C62.3737 19.4331 62.2132 19.1924 62.0107 18.9896C61.8083 18.7868 61.5679 18.626 61.3032 18.5162C61.0385 18.4064 60.7548 18.3499 60.4683 18.3499Z" fill="#F7F6F6"/>
<path d="M61.1119 54.6027C60.2766 54.3499 59.5164 53.8953 58.8983 53.2791C58.2803 52.6629 57.8235 51.9041 57.5681 51.0696H51.2717V57.6894C51.2713 58.7246 50.9797 59.7388 50.4301 60.6161C49.8805 61.4933 49.0952 62.1981 48.1638 62.65H60.4685C61.047 62.6493 61.6015 62.419 62.0103 62.0096C62.419 61.6002 62.6485 61.0453 62.6482 60.4668V56.684C62.6502 56.218 62.5018 55.7637 62.225 55.3887C61.9482 55.0138 61.5578 54.7381 61.1119 54.6027Z" fill="#F7F6F6"/>
</g>
<defs>
<clipPath id="clip0_386_7738">
<rect width="45" height="45" fill="white" transform="translate(18 18)"/>
</clipPath>
</defs>
</svg>
