<svg width="82" height="82" viewBox="0 0 82 82" fill="none" xmlns="http://www.w3.org/2000/svg">
<rect width="82" height="82" rx="10" fill="#09334F"/>
<path d="M44.1851 28.51C44.1851 31.535 46.6601 34.01 49.6851 34.01C52.7101 34.01 55.1851 31.535 55.1851 28.51C55.1851 25.485 52.7101 23.01 49.6851 23.01C46.6601 23.01 44.1851 25.43 44.1851 28.51Z" fill="#F7F6F6"/>
<path d="M54.2499 35.99H47.9249C45.8349 35.99 44.1299 37.695 44.1299 39.785V56.175C44.1299 57.165 44.9549 57.99 45.9449 57.99C46.9349 57.99 47.7599 57.165 47.7599 56.175V52.49C47.7599 51.5 48.5849 50.675 49.5749 50.675C50.5649 50.675 51.3899 51.5 51.3899 52.49V56.175C51.3899 57.165 52.2149 57.99 53.2049 57.99C54.1949 57.99 55.0199 57.165 55.0199 56.175V42.15C55.0199 41.82 55.4599 41.655 55.6799 41.875L58.4849 44.68C59.1999 45.395 60.3549 45.395 61.0699 44.68C61.7849 43.965 61.7849 42.81 61.0699 42.095L55.8449 36.65C55.4049 36.265 54.8549 35.99 54.2499 35.99Z" fill="#F7F6F6"/>
<path d="M19.8199 44.625C20.5349 45.34 21.6899 45.34 22.4049 44.625L23.5599 43.47C23.7799 43.25 24.1649 43.47 24.1099 43.745L22.2949 51.885C22.2399 52.215 22.4599 52.49 22.7899 52.49H24.9899C25.4849 52.49 25.8699 52.875 25.8699 53.37V56.175C25.8699 57.165 26.6949 57.99 27.6849 57.99C28.6749 57.99 29.4999 57.165 29.4999 56.175V54.36C29.4999 53.37 30.3249 52.545 31.3149 52.545C32.3049 52.545 33.1299 53.37 33.1299 54.36V56.175C33.1299 57.165 33.9549 57.99 34.9449 57.99C35.9349 57.99 36.7599 57.165 36.7599 56.175V53.37C36.7599 52.875 37.1449 52.49 37.6399 52.49H39.8399C40.1699 52.49 40.3899 52.215 40.3349 51.885L37.3649 38.575C37.0349 37.035 35.6599 35.99 34.1199 35.99H28.8399C26.8599 35.99 24.9899 36.76 23.6149 38.135L19.7649 41.985C19.1049 42.755 19.1049 43.91 19.8199 44.625Z" fill="#F7F6F6"/>
<path d="M25.8149 28.51C25.8149 31.535 28.2899 34.01 31.3149 34.01C34.3399 34.01 36.8149 31.535 36.8149 28.51C36.8149 25.485 34.3399 23.01 31.3149 23.01C28.2899 23.01 25.8149 25.43 25.8149 28.51Z" fill="#F7F6F6"/>
<path d="M40 49.4118C43.5411 49.4118 46.4118 46.5411 46.4118 43C46.4118 39.4589 43.5411 36.5882 40 36.5882C36.4589 36.5882 33.5882 39.4589 33.5882 43C33.5882 46.5411 36.4589 49.4118 40 49.4118Z" fill="white" stroke="#09334F" stroke-width="0.82353"/>
<path fill-rule="evenodd" clip-rule="evenodd" d="M38.7133 44.5935L37.1526 43.0828C36.9389 42.8759 36.9512 42.5487 37.1799 42.3554C37.4086 42.1622 37.7704 42.1733 37.9841 42.3801L39.1879 43.5454L41.0935 41.9352C41.1107 41.9207 41.1286 41.9074 41.1471 41.8952L42.0432 41.138C42.2719 40.9447 42.6338 40.9559 42.8474 41.1627C43.0611 41.3695 43.0488 41.6967 42.8201 41.89L40.0831 44.2028L40.0802 44.2L39.1334 45L38.7133 44.5935Z" fill="#09334F"/>
</svg>
