<svg width="82" height="82" viewBox="0 0 82 82" fill="none" xmlns="http://www.w3.org/2000/svg">
<path d="M41.1999 44.2999C41.6999 44.0999 42.9999 41.7 43.1999 37.2H39.0999C39.3999 41.7 40.6999 44.0999 41.1999 44.2999Z" fill="#F7F6F6"/>
<path d="M45.2 28.2C45.8 30 46.2 32.1 46.3 34.3H49.6C49.1 31.6 47.5 29.4 45.2 28.2Z" fill="#F7F6F6"/>
<path d="M32.8 34.3H36.1C36.2 32.1 36.6 30 37.2 28.2C34.9 29.4 33.3 31.6 32.8 34.3Z" fill="#F7F6F6"/>
<path d="M41.2 27.2C40.7 27.4 39.4 29.8 39.2 34.3H43.3C43 29.8 41.7 27.4 41.2 27.2Z" fill="#F7F6F6"/>
<path d="M32.8 37.3C33.3 39.9 34.9 42.2 37.2 43.4C36.6 41.6 36.2 39.5 36.1 37.3H32.8Z" fill="#F7F6F6"/>
<path d="M45.2 43.2999C47.5 42.0999 49.2 39.9 49.6 37.2H46.3C46.2 39.4 45.8 41.5999 45.2 43.2999Z" fill="#F7F6F6"/>
<rect width="82" height="82" rx="10" fill="#09334F"/>
<path d="M55 18H27.4C25 18 23 20 23 22.4V60.5C23 62.9 25 64.9 27.4 64.9H55C57.4 64.9 59.4 62.9 59.4 60.5V22.4C59.4 20 57.4 18 55 18ZM34.6 54.1C34.4 54.2 34.2 54.3 34 54.4C33.7 54.5 33.3 54.5 32.8 54.5H32V56.7H30.8V50.8H32.7C33.4 50.8 33.9 50.8 34.1 50.9C34.4 51 34.7 51.2 34.9 51.5C35.1 51.8 35.2 52.2 35.2 52.6C35.2 53 35.1 53.3 35 53.5C35 53.8 34.8 54 34.6 54.1ZM39.7 56.7L39.2 55.4H36.9L36.4 56.7H35.1L37.4 50.8H38.7L41.1 56.7H39.7ZM45.8 55.9C45.6 56.2 45.3 56.4 45 56.6C44.7 56.7 44.2 56.8 43.7 56.8C43 56.8 42.4 56.6 42 56.3C41.6 56 41.4 55.5 41.3 54.8L42.5 54.7C42.6 55.1 42.7 55.4 42.9 55.6C43.1 55.8 43.4 55.9 43.8 55.9C44.2 55.9 44.5 55.8 44.7 55.7C44.9 55.5 45 55.3 45 55.1C45 55 45 54.8 44.9 54.7C44.8 54.6 44.7 54.5 44.5 54.4C44.4 54.4 44 54.3 43.5 54.1C42.9 53.9 42.4 53.7 42.2 53.5C41.8 53.2 41.7 52.8 41.7 52.3C41.7 52 41.8 51.7 42 51.5C42.2 51.2 42.4 51 42.7 50.9C43 50.8 43.4 50.7 43.9 50.7C44.6 50.7 45.2 50.9 45.6 51.2C46 51.5 46.2 52 46.2 52.5L45 52.6C44.9 52.3 44.8 52.1 44.7 51.9C44.6 51.7 44.3 51.7 43.9 51.7C43.6 51.7 43.3 51.8 43.1 51.9C43 52 42.9 52.1 42.9 52.3C42.9 52.4 43 52.6 43.1 52.7C43.2 52.8 43.6 53 44.2 53.1C44.8 53.2 45.2 53.4 45.5 53.5C45.8 53.6 46 53.8 46.1 54.1C46.3 54.4 46.3 54.7 46.3 55C46.1 55.3 46 55.6 45.8 55.9ZM51.3 55.9C51.1 56.2 50.8 56.4 50.5 56.6C50.2 56.7 49.7 56.8 49.2 56.8C48.5 56.8 47.9 56.6 47.5 56.3C47.1 56 46.9 55.5 46.8 54.8L48 54.7C48.1 55.1 48.2 55.4 48.4 55.6C48.6 55.8 48.9 55.9 49.3 55.9C49.7 55.9 50 55.8 50.2 55.7C50.4 55.5 50.5 55.3 50.5 55.1C50.5 55 50.5 54.8 50.4 54.7C50.2 54.5 50 54.5 49.8 54.4C49.7 54.4 49.3 54.3 48.8 54.1C48.2 53.9 47.7 53.7 47.5 53.5C47.1 53.2 47 52.8 47 52.3C47 52 47.1 51.7 47.3 51.5C47.5 51.2 47.7 51 48 50.9C48.3 50.8 48.7 50.7 49.2 50.7C49.9 50.7 50.5 50.9 50.9 51.2C51.3 51.5 51.5 52 51.5 52.5L50.2 52.6C50.1 52.3 50 52.1 49.9 51.9C49.7 51.8 49.5 51.7 49.1 51.7C48.8 51.7 48.5 51.8 48.3 51.9C48.2 52 48.1 52.1 48.1 52.3C48.1 52.4 48.2 52.6 48.3 52.7C48.4 52.8 48.8 53 49.4 53.1C50 53.2 50.4 53.4 50.7 53.5C51 53.6 51.2 53.8 51.3 54.1C51.5 54.4 51.5 54.7 51.5 55C51.6 55.3 51.5 55.6 51.3 55.9ZM41.2 47.3C34.8 47.3 29.6 42.1 29.6 35.7C29.6 29.3 34.8 24.2 41.2 24.2C47.6 24.2 52.8 29.4 52.8 35.8C52.8 42.2 47.6 47.3 41.2 47.3Z" fill="#F7F6F6"/>
<path d="M33.3999 51.8999C33.2999 51.8999 32.9999 51.8999 32.4999 51.8999H31.8999V53.4999H32.4999C32.9999 53.4999 33.2999 53.4999 33.3999 53.3999C33.4999 53.2999 33.6999 53.1999 33.7999 53.0999C33.8999 52.9999 33.8999 52.7999 33.8999 52.5999C33.8999 52.3999 33.7999 52.1999 33.6999 52.0999C33.7999 51.9999 33.5999 51.8999 33.3999 51.8999Z" fill="#F7F6F6"/>
<path d="M37.2 54.4H38.8L38 52.2L37.2 54.4Z" fill="#F7F6F6"/>
<rect x="27.2" y="21.5" width="27" height="28" fill="#F7F6F6"/>
<g clip-path="url(#clip0_386_7730)">
<path fill-rule="evenodd" clip-rule="evenodd" d="M45.1985 28.7308V40.2552H43.0133C42.8848 40.9639 42.6277 41.6352 42.3064 41.9336C41.7922 42.493 40.8603 43.2762 40.6996 43.4254C40.5711 43.3135 39.607 42.493 39.0928 41.9336C38.8036 41.6352 38.5465 40.9266 38.3859 40.2552H36.2007V28.7308C36.2007 28.7308 36.6827 28.9172 37.5182 29.6259C38.3216 30.3345 38.643 31.789 38.643 31.789L39.0928 35.8916L39.0607 35.8543V35.8916C39.0607 35.8916 38.1288 36.1527 38.1288 36.7494C38.1288 37.1597 38.5144 37.3835 38.9964 37.4953C39.5427 36.3765 40.314 34.7727 40.314 33.4301C40.314 31.4907 39.2535 28.5443 40.7317 27.5C42.2099 28.5443 41.1495 31.4907 41.1495 33.4301C41.1495 34.81 41.8886 36.3765 42.467 37.4953C42.9169 37.3835 43.3347 37.1597 43.3347 36.7494C43.3347 36.1527 42.4028 35.8916 42.4028 35.8916V35.8543L42.3706 35.8916L42.8205 31.789C42.8205 31.789 43.1419 30.3345 43.9452 29.6259C44.7486 28.9172 45.2628 28.7308 45.2628 28.7308H45.1985ZM38.1931 35.183C38.1931 35.0711 38.0967 34.3998 37.8074 32.3858C37.6468 31.3042 37.2611 30.7821 36.9398 30.521V36.2273H37.3575C37.3575 36.2273 37.4861 35.8916 37.6146 35.6305C37.7432 35.3695 38.1609 35.183 38.1609 35.183H38.1931ZM36.9398 37.1597V39.4347H38.2895C38.2895 39.1364 38.3216 38.8753 38.3859 38.6515C38.418 38.5396 38.4823 38.3904 38.5787 38.204C38.3859 38.1667 38.2252 38.1667 38.0645 38.1294C37.454 37.9429 37.2611 37.1597 37.2611 37.1597H36.9077H36.9398ZM42.7884 38.2413C42.8848 38.4277 42.9491 38.5769 42.9812 38.6888C43.0455 38.9126 43.0776 39.1737 43.0776 39.472H44.4273V37.197H44.0738C44.0738 37.197 43.881 37.9802 43.2704 38.1667C43.1419 38.204 42.9491 38.2413 42.7562 38.2413H42.7884ZM44.4594 36.2646V30.5583C44.1381 30.8193 43.7524 31.3415 43.5918 32.4231C43.3025 34.4371 43.2383 35.1084 43.2061 35.2203H43.2383C43.2383 35.2203 43.6882 35.4068 43.7846 35.6678C43.9131 35.9289 44.0416 36.2646 44.0416 36.2646H44.4594ZM41.8565 38.465C41.5351 38.6142 41.2459 38.9126 41.1174 39.472H42.0493C42.0493 39.0991 41.985 38.7634 41.8886 38.465H41.8565ZM40.314 39.472C40.1854 38.9126 39.8962 38.6515 39.5749 38.465C39.4785 38.7634 39.4142 39.0991 39.4142 39.472H40.3461H40.314ZM39.8962 37.7191C40.3461 37.8683 40.6353 38.2413 40.6996 38.2786C40.7639 38.204 41.0531 37.8683 41.503 37.7191C41.3744 37.5326 41.278 37.3835 41.1816 37.2716C40.8924 36.9359 40.7317 36.0035 40.6996 35.817C40.6675 36.0408 40.4747 36.9359 40.2176 37.2716C40.1212 37.3835 40.0248 37.5326 39.8962 37.7191ZM41.9207 40.3298H41.0531V42.0082C41.0531 42.0082 41.6636 41.2995 41.9207 40.3298ZM40.3461 40.3298H39.4785C39.7034 41.3368 40.3461 42.0082 40.3461 42.0082V40.3298Z" fill="#09334F"/>
</g>
<defs>
<clipPath id="clip0_386_7730">
<rect width="9" height="16" fill="white" transform="translate(36.2 27.5)"/>
</clipPath>
</defs>
</svg>
