<svg width="82" height="82" viewBox="0 0 82 82" fill="none" xmlns="http://www.w3.org/2000/svg">
<rect width="82" height="82" rx="10" fill="#09334F"/>
<g clip-path="url(#clip0_419_231)">
<path d="M62.0598 59.8974H41.4318C48.5829 54.3595 56.8074 45.7688 56.8074 36.1852C56.8074 27.3832 49.7162 20.2222 41 20.2222C32.2838 20.2222 25.1926 27.3832 25.1926 36.1852C25.1926 45.8634 33.1845 54.421 40.5267 59.8974H19.9402C19.4209 59.8974 19 60.3184 19 60.8376C19 61.3567 19.4209 61.7777 19.9402 61.7777H62.0598C62.5791 61.7777 63 61.3567 63 60.8376C63 60.3184 62.5791 59.8974 62.0598 59.8974ZM28.3077 35.4869C28.3077 28.47 34.0015 22.7614 41 22.7614C47.9985 22.7614 53.6923 28.47 53.6923 35.4869C53.6923 42.5037 47.9985 48.2123 41 48.2123C34.0015 48.2123 28.3077 42.5037 28.3077 35.4869Z" fill="#F7F6F6"/>
<path d="M36.7241 34.2593H40.0598V39.0512H36.7241V34.2593Z" fill="#F7F6F6"/>
<path d="M36.1292 32.3788H45.8706L40.9999 28.8027L36.1292 32.3788Z" fill="#F7F6F6"/>
<path d="M41.9402 34.2593H45.2772V39.0512H41.9402V34.2593Z" fill="#F7F6F6"/>
<path d="M51.8119 35.4868C51.8119 29.5068 46.9617 24.6416 41 24.6416C35.0382 24.6416 30.188 29.5067 30.188 35.4868C30.188 41.4668 35.0382 46.3318 41 46.3318C46.9617 46.3318 51.8119 41.4668 51.8119 35.4868ZM33.3399 39.9911C33.3399 39.472 33.7608 39.0509 34.2801 39.0509H34.8439V34.259H33.2601C32.2543 33.9618 32.0688 33.3958 32.7037 32.5609L40.4437 26.8785C40.7747 26.6353 41.2253 26.6353 41.5564 26.8785L49.2964 32.5609C49.9313 33.3957 49.7458 33.9617 48.74 34.259H47.1576V39.0509H48.1493C48.6686 39.0509 49.0895 39.472 49.0895 39.9911C49.0895 40.5103 48.6686 40.9313 48.1493 40.9313H34.2801C33.7608 40.9313 33.3399 40.5104 33.3399 39.9911Z" fill="#F7F6F6"/>
</g>
<defs>
<clipPath id="clip0_419_231">
<rect width="44" height="44" fill="white" transform="translate(19 19)"/>
</clipPath>
</defs>
</svg>
