<svg width="82" height="82" viewBox="0 0 82 82" fill="none" xmlns="http://www.w3.org/2000/svg">
<rect width="82" height="82" rx="10" fill="#09334F"/>
<g clip-path="url(#clip0_386_7737)">
<path d="M28.2431 30.3993C29.9306 30.3993 31.2987 29.0312 31.2987 27.3437C31.2987 25.6561 29.9306 24.2881 28.2431 24.2881C26.5555 24.2881 25.1875 25.6561 25.1875 27.3437C25.1875 29.0312 26.5555 30.3993 28.2431 30.3993Z" fill="#F7F6F6"/>
<path d="M50.4731 18H19.3477C18.6038 18 18 18.6038 18 19.3477V62.6523C18 63.3963 18.6038 64 19.3477 64H38.4457V61.1564C37.364 60.4566 36.6462 59.2401 36.6462 57.8583V56.4513C36.6462 52.394 39.9156 49.085 43.9586 49.0222L43.0871 41.0467C42.8202 38.6111 43.6055 36.1682 45.2424 34.3417C46.8776 32.5179 49.2216 31.4721 51.6716 31.4721H51.6905C51.7291 31.4721 51.7705 31.473 51.8136 31.4739C51.8163 31.4577 51.8181 31.4406 51.8208 31.4245V19.3477C51.8208 18.6038 51.217 18 50.4731 18ZM28.2431 21.5929C31.4137 21.5929 33.994 24.1732 33.994 27.3438C33.994 30.5143 31.4137 33.0946 28.2431 33.0946C25.0716 33.0946 22.4922 30.5143 22.4922 27.3438C22.4922 24.1732 25.0716 21.5929 28.2431 21.5929ZM31.3166 45.2236H23.8407C23.0968 45.2236 22.4931 44.6198 22.4931 43.8759C22.4931 43.132 23.0968 42.5282 23.8407 42.5282H31.3166C32.0605 42.5282 32.6643 43.132 32.6643 43.8759C32.6643 44.6198 32.0605 45.2236 31.3166 45.2236ZM39.1977 45.2236H36.7073C35.9634 45.2236 35.3596 44.6198 35.3596 43.8759C35.3596 43.132 35.9634 42.5282 36.7073 42.5282H39.1977C39.9416 42.5282 40.5454 43.132 40.5454 43.8759C40.5454 44.6198 39.9416 45.2236 39.1977 45.2236ZM39.1977 39.8329H23.8407C23.1013 39.8329 22.4931 39.2247 22.4931 38.4853C22.4931 37.7459 23.1013 37.1376 23.8407 37.1376H39.1977C39.9371 37.1376 40.5454 37.7459 40.5454 38.4853C40.5454 39.2247 39.9371 39.8329 39.1977 39.8329Z" fill="#F7F6F6"/>
<path d="M62.2004 61.7817V62.7718C62.2004 63.4492 61.6496 64 60.9713 64H42.3692C41.6917 64 41.141 63.4492 41.141 62.7718V61.7817H62.2004Z" fill="#F7F6F6"/>
<path d="M55.8907 35.9284C54.2079 34.2268 52.0912 34.1702 51.6725 34.1675H51.6716C49.9862 34.1675 48.3735 34.8871 47.2486 36.1422C46.1229 37.3974 45.5829 39.0774 45.7662 40.753C46.0681 43.5094 46.3691 46.2649 46.67 49.0213H56.6732L57.5762 40.7512C57.6112 40.4026 57.8205 37.878 55.8907 35.9284ZM51.6671 41.6569C51.6662 41.6569 51.6662 41.6569 51.6653 41.6569C50.9214 41.6569 50.3177 41.0531 50.3177 40.3092C50.3177 39.5644 50.9214 38.9615 51.6653 38.9615H51.6671C52.4057 38.9624 53.013 39.5707 53.013 40.3092C53.013 41.0477 52.4057 41.656 51.6671 41.6569Z" fill="#F7F6F6"/>
<path d="M59.2651 51.7166H51.6722H44.0761C41.4655 51.7166 39.3412 53.8408 39.3412 56.4514V57.8583C39.3412 58.5363 39.8915 59.0866 40.5695 59.0866H51.6722H62.7716C63.4497 59.0866 64 58.5363 64 57.8583V56.4514C64 53.8407 61.8757 51.7166 59.2651 51.7166Z" fill="#F7F6F6"/>
</g>
<defs>
<clipPath id="clip0_386_7737">
<rect width="46" height="46" fill="white" transform="translate(18 18)"/>
</clipPath>
</defs>
</svg>
