<svg width="35" height="35" viewBox="0 0 35 35" fill="none" xmlns="http://www.w3.org/2000/svg">
<path fill-rule="evenodd" clip-rule="evenodd" d="M15.8005 0.0704384C13.9747 0.23331 11.6346 0.894434 9.88839 1.74077C4.8565 4.17957 1.37354 8.7105 0.264643 14.2603C-0.0882143 16.0266 -0.0882143 19.0121 0.264643 20.7784C1.69691 27.947 7.06093 33.3051 14.2374 34.7357C16.0002 35.0872 18.9951 35.0882 20.7515 34.7379C24.7913 33.9322 28.3892 31.833 30.8905 28.822C32.9013 26.4016 34.1224 23.8449 34.7376 20.7673C35.0883 19.0128 35.0873 16.0212 34.7355 14.2603C33.7406 9.28105 30.8211 5.09448 26.5491 2.52063C23.3669 0.603412 19.5586 -0.264724 15.8005 0.0704384ZM23.1923 7.70907C24.8705 8.1324 26.2911 9.23428 26.8834 10.5723C27.5035 11.9729 27.5273 12.2297 27.5273 17.5194C27.5273 22.8449 27.4987 23.1434 26.8561 24.5087C26.4696 25.3298 25.3192 26.479 24.4971 26.8651C23.1303 27.507 22.8315 27.5356 17.5 27.5356C13.2434 27.5356 12.5253 27.5115 11.8736 27.3468C9.63071 26.7799 8.22893 25.3831 7.66489 23.153C7.49602 22.4857 7.47278 21.8018 7.47278 17.5194C7.47278 12.2312 7.49668 11.9725 8.11545 10.5749C8.42565 9.87437 9.42983 8.75815 10.0986 8.37052C10.8129 7.9565 11.8964 7.64445 12.9495 7.54948C13.4923 7.50052 15.8608 7.47654 18.2128 7.49614C21.7032 7.52528 22.6183 7.56438 23.1923 7.70907ZM12.4764 9.42344C11.2129 9.64118 10.1523 10.4209 9.70648 11.4598C9.31569 12.3706 9.25965 13.2719 9.29803 18.0338C9.33356 22.4565 9.34321 22.6347 9.57973 23.2661C9.99278 24.3684 10.714 25.069 11.853 25.4746C12.3379 25.6472 12.9313 25.6743 16.985 25.7095C19.9645 25.7353 21.8399 25.7072 22.3436 25.6291C24.248 25.334 25.323 24.2619 25.6177 22.364C25.6968 21.8554 25.7261 19.9888 25.7021 17.0049C25.6666 12.6073 25.6557 12.4009 25.4246 11.7849C25.0011 10.6557 24.3719 10.0271 23.2408 9.60307C22.6191 9.3701 22.4481 9.36188 17.829 9.34271C15.2056 9.33187 12.7969 9.36823 12.4764 9.42344ZM23.7395 11.3252C23.9695 11.555 24.0243 11.7141 24.0243 12.1524C24.0243 12.5994 23.9707 12.7486 23.7202 12.9987C23.4698 13.2489 23.3204 13.3024 22.873 13.3024C22.4255 13.3024 22.2761 13.2489 22.0257 12.9987C21.7766 12.75 21.7216 12.5986 21.7216 12.1614C21.7216 11.6021 21.9362 11.238 22.3795 11.0455C22.7605 10.88 23.4321 11.0181 23.7395 11.3252ZM19.6294 12.8425C20.8073 13.4014 21.5667 14.1519 22.1413 15.3252C22.5975 16.257 22.5988 16.2634 22.5988 17.5194C22.5988 18.7753 22.5975 18.7817 22.1413 19.7135C21.5648 20.8907 20.8093 21.6355 19.6126 22.2064C18.7831 22.602 18.7285 22.6125 17.5 22.6125C16.2427 22.6125 16.2363 22.6112 15.3035 22.1554C14.125 21.5796 13.3794 20.825 12.8079 19.6296C12.4118 18.801 12.4013 18.7464 12.4013 17.5194C12.4013 16.2923 12.4118 16.2377 12.8079 15.4091C13.3249 14.3278 14.1018 13.4989 15.0804 12.9854C16.0789 12.4611 16.4846 12.3737 17.7362 12.4133C18.6887 12.4433 18.8784 12.4863 19.6294 12.8425ZM16.7247 14.2684C15.1523 14.7085 14.173 15.9582 14.1678 17.5315C14.1658 18.1294 14.2272 18.381 14.5204 18.976C15.1088 20.1698 16.1888 20.8485 17.5 20.8485C18.8113 20.8485 19.8913 20.1698 20.4797 18.976C20.9464 18.0289 20.9714 17.1071 20.5547 16.205C20.1582 15.3468 19.7763 14.9445 19.001 14.5689C18.1959 14.1789 17.4135 14.0756 16.7247 14.2684Z" fill="#09334F"/>
</svg>
