<svg width="35" height="36" viewBox="0 0 35 36" fill="none" xmlns="http://www.w3.org/2000/svg">
<path fill-rule="evenodd" clip-rule="evenodd" d="M15.8005 0.406376C13.9747 0.569247 11.6346 1.23037 9.88839 2.07671C4.8565 4.51551 1.37354 9.04644 0.264643 14.5962C-0.0882143 16.3625 -0.0882143 19.3481 0.264643 21.1144C1.69691 28.2829 7.06093 33.641 14.2374 35.0717C16.0002 35.4232 18.9951 35.4241 20.7515 35.0739C24.7913 34.2682 28.3892 32.1689 30.8905 29.1579C32.9013 26.7375 34.1224 24.1809 34.7376 21.1032C35.0883 19.3487 35.0873 16.3571 34.7355 14.5962C33.7406 9.61698 30.8211 5.43041 26.5491 2.85657C23.3669 0.93935 19.5586 0.0712137 15.8005 0.406376ZM23.1923 8.04501C24.8705 8.46834 26.2911 9.57022 26.8834 10.9082C27.5035 12.3088 27.5273 12.5656 27.5273 17.8553C27.5273 23.1809 27.4987 23.4793 26.8561 24.8446C26.4696 25.6658 25.3192 26.815 24.4971 27.2011C23.1303 27.8429 22.8315 27.8715 17.5 27.8715C13.2434 27.8715 12.5253 27.8474 11.8736 27.6828C9.63071 27.1158 8.22893 25.719 7.66489 23.489C7.49602 22.8216 7.47278 22.1377 7.47278 17.8553C7.47278 12.5672 7.49668 12.3085 8.11545 10.9109C8.42565 10.2103 9.42983 9.09409 10.0986 8.70646C10.8129 8.29244 11.8964 7.98038 12.9495 7.88542C13.4923 7.83646 15.8608 7.81248 18.2128 7.83208C21.7032 7.86122 22.6183 7.90032 23.1923 8.04501ZM12.4764 9.75937C11.2129 9.97712 10.1523 10.7569 9.70648 11.7958C9.31569 12.7065 9.25965 13.6078 9.29803 18.3698C9.33356 22.7925 9.34321 22.9707 9.57973 23.602C9.99278 24.7043 10.714 25.405 11.853 25.8106C12.3379 25.9831 12.9313 26.0103 16.985 26.0454C19.9645 26.0713 21.8399 26.0431 22.3436 25.965C24.248 25.6699 25.323 24.5979 25.6177 22.6999C25.6968 22.1914 25.7261 20.3248 25.7021 17.3408C25.6666 12.9432 25.6557 12.7368 25.4246 12.1208C25.0011 10.9916 24.3719 10.363 23.2408 9.939C22.6191 9.70603 22.4481 9.69782 17.829 9.67865C15.2056 9.66781 12.7969 9.70417 12.4764 9.75937ZM23.7395 11.6611C23.9695 11.8909 24.0243 12.0501 24.0243 12.4883C24.0243 12.9353 23.9707 13.0845 23.7202 13.3347C23.4698 13.5848 23.3204 13.6384 22.873 13.6384C22.4255 13.6384 22.2761 13.5848 22.0257 13.3347C21.7766 13.0859 21.7216 12.9345 21.7216 12.4973C21.7216 11.938 21.9362 11.574 22.3795 11.3814C22.7605 11.2159 23.4321 11.354 23.7395 11.6611ZM19.6294 13.1785C20.8073 13.7373 21.5667 14.4878 22.1413 15.6612C22.5975 16.593 22.5988 16.5993 22.5988 17.8553C22.5988 19.1113 22.5975 19.1176 22.1413 20.0494C21.5648 21.2266 20.8093 21.9714 19.6126 22.5423C18.7831 22.9379 18.7285 22.9484 17.5 22.9484C16.2427 22.9484 16.2363 22.9471 15.3035 22.4914C14.125 21.9156 13.3794 21.1609 12.8079 19.9655C12.4118 19.1369 12.4013 19.0824 12.4013 17.8553C12.4013 16.6282 12.4118 16.5737 12.8079 15.7451C13.3249 14.6637 14.1018 13.8349 15.0804 13.3213C16.0789 12.7971 16.4846 12.7097 17.7362 12.7492C18.6887 12.7792 18.8784 12.8223 19.6294 13.1785ZM16.7247 14.6043C15.1523 15.0444 14.173 16.2942 14.1678 17.8675C14.1658 18.4654 14.2272 18.717 14.5204 19.3119C15.1088 20.5057 16.1888 21.1845 17.5 21.1845C18.8113 21.1845 19.8913 20.5057 20.4797 19.3119C20.9464 18.3648 20.9714 17.443 20.5547 16.5409C20.1582 15.6828 19.7763 15.2805 19.001 14.9049C18.1959 14.5148 17.4135 14.4116 16.7247 14.6043Z" fill="#F7F6F6"/>
</svg>
