<svg width="34" height="27" viewBox="0 0 34 27" fill="none" xmlns="http://www.w3.org/2000/svg">
<path d="M30.3333 0.0595703H3.66659C1.83325 0.0595703 0.349919 1.55957 0.349919 3.3929L0.333252 23.3929C0.333252 25.2262 1.83325 26.7262 3.66659 26.7262H30.3333C32.1666 26.7262 33.6666 25.2262 33.6666 23.3929V3.3929C33.6666 1.55957 32.1666 0.0595703 30.3333 0.0595703ZM29.6666 7.1429L17.8833 14.5096C17.3499 14.8429 16.6499 14.8429 16.1166 14.5096L4.33325 7.1429C4.16613 7.04909 4.01978 6.92234 3.90307 6.77033C3.78635 6.61831 3.70169 6.4442 3.65421 6.25852C3.60673 6.07284 3.59742 5.87946 3.62685 5.69008C3.65627 5.5007 3.72381 5.31926 3.82539 5.15674C3.92696 4.99422 4.06046 4.854 4.2178 4.74456C4.37513 4.63513 4.55304 4.55876 4.74074 4.52007C4.92845 4.48138 5.12206 4.48118 5.30984 4.51948C5.49763 4.55779 5.67569 4.63379 5.83325 4.7429L16.9999 11.7262L28.1666 4.7429C28.3241 4.63379 28.5022 4.55779 28.69 4.51948C28.8778 4.48118 29.0714 4.48138 29.2591 4.52007C29.4468 4.55876 29.6247 4.63513 29.782 4.74456C29.9394 4.854 30.0729 4.99422 30.1744 5.15674C30.276 5.31926 30.3436 5.5007 30.373 5.69008C30.4024 5.87946 30.3931 6.07284 30.3456 6.25852C30.2981 6.4442 30.2135 6.61831 30.0968 6.77033C29.9801 6.92234 29.8337 7.04909 29.6666 7.1429Z" fill="#F7F6F6"/>
</svg>
