<svg width="1049" height="1049" viewBox="0 0 1049 1049" fill="none" xmlns="http://www.w3.org/2000/svg">
<path d="M461.483 488.012L524.251 451.773L587.02 488.012V560.491L524.251 596.73L461.483 560.491V488.012Z" stroke="#FEFFAB" stroke-width="1.57875"/>
<path d="M343.134 419.683L524.251 315.115L705.368 419.683V628.819L524.251 733.387L343.134 628.819V419.683Z" stroke="#FEFFAB" stroke-width="1.57875"/>
<path opacity="0.8" d="M270.079 377.505L524.251 230.759L778.423 377.505V670.997L524.251 817.744L270.079 670.997V377.505Z" stroke="#FEFFAB" stroke-width="1.57875"/>
<path opacity="0.4" d="M166.341 317.612L524.251 110.973L882.161 317.612V730.89L524.251 937.53L166.341 730.89L166.341 317.612Z" stroke="#FEFFAB" stroke-width="1.57875"/>
<path opacity="0.1" d="M71.3702 262.78L524.251 1.30927L977.132 262.78V785.722L524.251 1047.19L71.3702 785.722V262.78Z" stroke="#FEFFAB" stroke-width="1.57875"/>
</svg>
