<svg width="16" height="16" viewBox="0 0 16 16" fill="none" xmlns="http://www.w3.org/2000/svg">
<path d="M4.48429 11.4864C6.90357 13.9054 9.85 15.7721 12.2521 15.7721C13.3321 15.7721 14.2779 15.3954 15.0396 14.5582C15.4832 14.0643 15.7596 13.4868 15.7596 12.9179C15.7596 12.4993 15.6004 12.0975 15.1989 11.8129L12.6371 9.98786C12.2439 9.72 11.9175 9.58607 11.6161 9.58607C11.2311 9.58607 10.8961 9.80393 10.5111 10.1804L9.91679 10.7664C9.83276 10.8514 9.71844 10.8996 9.59893 10.9004C9.465 10.9004 9.3475 10.8504 9.25571 10.8082C8.745 10.5321 7.85786 9.77036 7.02893 8.95C6.20857 8.12964 5.44678 7.2425 5.17893 6.72357C5.12111 6.62121 5.08957 6.50611 5.08714 6.38857C5.08714 6.28 5.12036 6.17072 5.2125 6.07893L5.79821 5.46822C6.17536 5.08286 6.39286 4.74786 6.39286 4.36286C6.39286 4.06179 6.25893 3.73536 5.98286 3.34179L4.18286 0.805359C3.89 0.403574 3.48 0.227859 3.02786 0.227859C2.47536 0.227859 1.89786 0.478931 1.4125 0.956431C0.600357 1.735 0.240356 2.69715 0.240356 3.76C0.240356 6.1625 2.07357 9.07572 4.48429 11.4864Z" fill="#09334F"/>
</svg>
