<svg width="16" height="17" viewBox="0 0 16 17" fill="none" xmlns="http://www.w3.org/2000/svg">
<path d="M4.48429 11.822C6.90357 14.241 9.85 16.1078 12.2521 16.1078C13.3321 16.1078 14.2779 15.731 15.0396 14.8938C15.4832 14.3999 15.7596 13.8224 15.7596 13.2535C15.7596 12.8349 15.6004 12.4331 15.1989 12.1485L12.6371 10.3235C12.2439 10.0556 11.9175 9.92169 11.6161 9.92169C11.2311 9.92169 10.8961 10.1395 10.5111 10.516L9.91679 11.102C9.83276 11.187 9.71844 11.2352 9.59893 11.236C9.465 11.236 9.3475 11.186 9.25571 11.1438C8.745 10.8678 7.85786 10.106 7.02893 9.28562C6.20857 8.46526 5.44678 7.57812 5.17893 7.05919C5.12111 6.95683 5.08957 6.84173 5.08714 6.72419C5.08714 6.61562 5.12036 6.50633 5.2125 6.41455L5.79821 5.80383C6.17536 5.41848 6.39286 5.08348 6.39286 4.69848C6.39286 4.3974 6.25893 4.07098 5.98286 3.6774L4.18286 1.14098C3.89 0.739191 3.48 0.563477 3.02786 0.563477C2.47536 0.563477 1.89786 0.814548 1.4125 1.29205C0.600357 2.07062 0.240356 3.03276 0.240356 4.09562C0.240356 6.49812 2.07357 9.41133 4.48429 11.822Z" fill="#F7F6F6"/>
</svg>
