<svg width="34" height="34" viewBox="0 0 34 34" fill="none" xmlns="http://www.w3.org/2000/svg">
<path d="M16.9999 0.333336C26.2049 0.333336 33.6666 7.795 33.6666 17C33.6666 26.205 26.2049 33.6667 16.9999 33.6667C7.79492 33.6667 0.333252 26.205 0.333252 17C0.333252 7.795 7.79492 0.333336 16.9999 0.333336ZM16.9999 7C16.5579 7 16.134 7.1756 15.8214 7.48816C15.5088 7.80072 15.3333 8.22464 15.3333 8.66667V17C15.3333 17.442 15.509 17.8658 15.8216 18.1783L20.8216 23.1783C21.1359 23.4819 21.5569 23.6499 21.9939 23.6461C22.4309 23.6423 22.8489 23.467 23.1579 23.158C23.467 22.849 23.6422 22.431 23.646 21.994C23.6498 21.557 23.4818 21.136 23.1783 20.8217L18.6666 16.31V8.66667C18.6666 8.22464 18.491 7.80072 18.1784 7.48816C17.8659 7.1756 17.4419 7 16.9999 7Z" fill="#09334F"/>
</svg>
